<svg xmlns="http://www.w3.org/2000/svg" width="50" height="50" viewBox="0 0 217.7457 226.146">
    <path d="M114.48,40.0488l1.1765-4.4081-4.5494-1.0664c-.4107,1.4624-.7836,2.79-1.1994,4.2709Z" style="fill:none" />
    <path d="M112.4334,30.0918c-.2546.8548-.4624,1.553-.7289,2.4476l4.1512,1.0818C116.81,32.0545,116.6445,31.8789,112.4334,30.0918Z" style="fill:none" />
    <path d="M108.1013,38.5239c.3819-1.4591.74-2.8277,1.1416-4.3619l-3.5334-.9542c-.4028,1.6066-.7634,3.0445-1.1748,4.6852Z" style="fill:none" />
    <path d="M105.5866,26.0215c-2.8825.3617-3.6,2.0687-4.1529,4.224l2.9625.6083C104.8082,29.1813,105.1667,27.7259,105.5866,26.0215Z" style="fill:none" />
    <path d="M119.6086,41.9893c2.0305-5.51,1.8017-4.7461-2.2451-5.6l-1.1143,4.1863Z" style="fill:none" />
    <path d="M114.03,42.07l-4.3533-1.0584c-1.394,3.7919-1.2331,3.9942,3.597,4.647C113.5064,44.5515,113.742,43.4338,114.03,42.07Z" style="fill:none" />
    <path d="M113.17,56.0787c-1.0641,4.091-1.0292,4.1657,2.6169,5.7559C117.2454,57.9307,117.0484,57.4731,113.17,56.0787Z" style="fill:none" />
    <path d="M115.5106,64.9382c.1134-.8269-1.8171-1.9342-2.83-2.9155l-.53.3465-.3978,5.86,1.1037.4891C113.8109,67.4676,115.3246,66.2939,115.5106,64.9382Z" style="fill:none" />
    <path d="M117.9364,50.27l-3.0559-1.4487c-2.2077,3.8886-1.7292,5.4859,1.9446,6.3421Z" style="fill:none" />
    <path d="M119.41,44.1465l-3.3014-1.4038c-1.802,3.4582-1.6224,3.9173,2.2047,5.3491C118.6973,46.709,119.0385,45.4813,119.41,44.1465Z" style="fill:none" />
    <path d="M121.9691,55.0527c.1461-.8067.2742-1.6167.4462-2.6391l-2.6077-1.3144c-1.934,4.5273-1.7015,5.3813,1.6986,6.3446C121.6619,56.6433,121.8247,55.85,121.9691,55.0527Z" style="fill:none" />
    <path d="M120.7647,62.3041c.3723-2.6589,1.1974-2.4807-2.4913-3.9093a19.8629,19.8629,0,0,0-.5048,3.3755,7.2372,7.2372,0,0,0,.7758,2.18C119.3184,63.4062,120.6751,62.9439,120.7647,62.3041Z" style="fill:none" />
    <path d="M110.81,29.1234l-3.4844-1.8882c-.4026,1.3126-.7652,2.4947-1.2034,3.9238l3.7475,1.0185Z" style="fill:none" />
    <path d="M93.3291,51.8182l3.2355-.9283c-.2074-1.6525-.3994-3.1828-.621-4.9494l-3.3692.7052C92.8218,48.3414,93.0582,49.9613,93.3291,51.8182Z" style="fill:none" />
    <path d="M85.57,56.73c-5.7222,1.01-6.04,1.3552-5.5417,5.9519,1.7226-.7748,3.5059-1.1909,4.7069-2.2608C85.466,59.7694,85.2991,58.11,85.57,56.73Z" style="fill:none" />
    <path d="M103.949,32.855l-3.2321-.6432c-.3391,1.1242-.655,2.0818-.91,3.0555a11.8935,11.8935,0,0,0-.1834,1.5565l3.0459.6589C103.0823,35.9906,103.471,34.5845,103.949,32.855Z" style="fill:none" />
    <path d="M90.395,45.2253c-.2513-.8374-.45-1.5016-.657-2.19-4.5691,1.0626-4.5691,1.0626-3.7724,3.5836Z" style="fill:none" />
    <path d="M90.9068,52.538c.3145-.1124.6076-.8462.5737-1.2671-.1034-1.2852-.371-2.5572-.5742-3.8313-4.9209.82-5.3008,1.3869-4.0777,6.2226C88.1919,53.3041,89.5816,53.0115,90.9068,52.538Z" style="fill:none" />
    <path d="M80.8807,67.7944c4.2781,2.2463,4.79,1.9207,4.8281-2.9267.0056-.7207.0007-1.4416.0007-2.5192a54.0862,54.0862,0,0,0-4.9241,2.2736,2.4918,2.4918,0,0,0-.8016,1.8385A1.8292,1.8292,0,0,0,80.8807,67.7944Z" style="fill:none" />
    <path d="M102.2046,39.5314l-3.0061-.6908c-.2611,1.0611-.5024,2.0418-.8082,3.2841l2.998.7767C101.6735,41.724,101.92,40.7057,102.2046,39.5314Z" style="fill:none" />
    <path d="M94.0194,57.2059l3.4973-.7256c-.2288-1.265-.4248-2.3482-.6427-3.5519l-3.1617.9774C93.8148,55.0068,93.9078,56.0066,94.0194,57.2059Z" style="fill:none" />
    <path d="M98.27,66.7488c-3.6862.2859-4.1.81-3.7964,4.929C98.7331,70.4512,98.874,70.2615,98.27,66.7488Z" style="fill:none" />
    <path d="M94.5559,65.0553c4.0578-.0368,4.8066-1.668,3.0244-6.4812l-3.3066.758C94.37,61.2838,94.4631,63.1727,94.5559,65.0553Z" style="fill:none" />
    <path d="M97.84,76.6647c.0943-1.5216.16-2.5746.2432-3.9249L93.95,74.1215Z" style="fill:none" />
    <path d="M108.28,46.6887c-.3372,1.7182-.6491,3.3082-.986,5.0248l4.1064,1.5212C113.7156,48.7039,113.1431,47.4324,108.28,46.6887Z" style="fill:none" />
    <path d="M123.3619,57.8663c.1573.8548,1.5987,1.4733,2.4639,2.198.4329-.5754,1.1273-1.0981,1.2555-1.7348.7054-3.5038.6579-3.5134-3.1114-5.0291C123.703,54.9576,123.1088,56.49,123.3619,57.8663Z" style="fill:none" />
    <path d="M125.5835,46.9015c-1.68,4.1158-1.48,4.6156,2.3845,5.9471C129.5491,47.8234,129.3542,48.3833,125.5835,46.9015Z" style="fill:none" />
    <path d="M133.1085,56.2124c1.8349-4.1069,1.5259-5.0537-2.1142-6.478C129.0031,52.9258,129.4411,54.2679,133.1085,56.2124Z" style="fill:none" />
    <path d="M130.8444,41.1365l-3.5587-1.5212c-.4984,1.7641-.936,3.3127-1.408,4.9833l3.5716,1.8626C129.9185,44.67,130.3578,42.9938,130.8444,41.1365Z" style="fill:none" />
    <path d="M124.1663,43.7868c.4657-1.538.9282-3.0651,1.4726-4.8625l-2.5348-.862C121.0724,41.7187,121.2324,42.72,124.1663,43.7868Z" style="fill:none" />
    <path d="M122.6962,50.0878c1.3814-4.198,1.3814-4.198-1.28-5.0915C119.3486,48.4605,119.5261,49.1667,122.6962,50.0878Z" style="fill:none" />
    <path d="M140.2,52.6963c1.6285-5.6867,1.9622-4.76-2.4068-7.2914C135.4351,49.5067,135.7074,50.37,140.2,52.6963Z" style="fill:none" />
    <path d="M134.1527,49.4653a8.1082,8.1082,0,0,0,.63-.975c.41-1.4425.8085-2.888,1.2525-4.4854l-3.5123-2.1837c-.4634,1.7735-1.3026,3.3469-1.1028,4.7749C131.5618,47.6109,133.1046,48.43,134.1527,49.4653Z" style="fill:none" />
    <path d="M87.2645,59.2715c6.1812-1.7544,5.2716-1.2459,4.5761-4.78L86.79,55.9162C86.9787,57.2508,87.12,58.25,87.2645,59.2715Z" style="fill:none" />
    <path d="M135.0127,56.5547l5.2379-1.4514-4.388-2.87C135.5665,53.7392,135.3244,54.97,135.0127,56.5547Z" style="fill:none" />
    <path d="M102.1554,49.8881c.0965.61,1.98.9374,3.2633,1.4838.412-1.9226.75-3.5,1.1345-5.2938l-3.7373-.9017C102.53,46.824,101.9235,48.4223,102.1554,49.8881Z" style="fill:none" />
    <path d="M146.1649,54.1468c.9281-.1242,1.8523-.2783,3.3569-.5064l-6.425-4.7935c-.1933.7776-.2921,1.2763-.4411,1.76C141.1324,55.5453,142.3334,54.6593,146.1649,54.1468Z" style="fill:none" />
    <path d="M109.6478,68.6239a28.43,28.43,0,0,0-3.6844-2.9809v8.6637l.384.3775a41.2716,41.2716,0,0,0,3.3918-3.8565A2.3143,2.3143,0,0,0,109.6478,68.6239Z" style="fill:none" />
    <path d="M107.3193,103.8943l4.22-5.8961c-2.9982-2.2092-6.2633-1.3834-10.04-1.3174Z" style="fill:none" />
    <path d="M111.3287,55.3473,107.478,53.939c-1.2334,3.2113-1.1,3.4135,3.3164,4.9184C110.9792,57.6431,111.142,56.5738,111.3287,55.3473Z" style="fill:none" />
    <path d="M106.8149,59.5245c-1.0781,3.888-.8785,4.2871,3.1547,6.5731C110.846,60.1926,111.0527,61.23,106.8149,59.5245Z" style="fill:none" />
    <path d="M107.694,40.752l-3.7125-.7505c-.2523,1.0567-.4662,1.9529-.7365,3.0847l3.6248.8963Z" style="fill:none" />
    <path d="M103.8167,80.2882c-.2594-1.0623-.5187-2.1245-.8288-3.395l-3.4563.8424,3.7058,2.7532Z" style="fill:none" />
    <path d="M105.04,56.4363c.1139-1.0813.2124-2.0166.3283-3.1174l-3.3964-.8236C100.8955,55.3171,101.1168,55.599,105.04,56.4363Z" style="fill:none" />
    <path d="M104.4006,62.1927c.776-3.5937.71-3.6921-2.8807-4.525C100.6262,60.1918,100.8588,60.571,104.4006,62.1927Z" style="fill:none" />
    <path d="M99.5672,75.6224l2.7122-.7822c-.2653-1.0458-.4947-1.95-.7392-2.9143C98.5871,72.04,100.0947,74.109,99.5672,75.6224Z" style="fill:none" />
    <path d="M101.977,63.2759c.6742,2.7452,1.2441,5.0658,1.8139,7.3864l.5385-.1361C103.4356,68.2882,105.9632,65.1749,101.977,63.2759Z" style="fill:none" />
    <path d="M99.34,49.7505l.79-.0493c.29-1.5179.58-3.0358.8953-4.6886l-2.3851-.69C98.8991,46.3345,99.1193,48.0425,99.34,49.7505Z" style="fill:none" />
    <path d="M72.8845,58.9861,77.7689,56.99c-.2471-1.4414-.4934-2.8784-.7439-4.3388C71.6253,54.1966,72,53.6674,72.8845,58.9861Z" style="fill:none" />
    <path d="M115.832,101.8107l2.4048-3.036C115.1525,98.7615,114.8245,99.2522,115.832,101.8107Z" style="fill:none" />
    <path d="M129.1109,127.0729c.9442-1.6406,1.9227-3.1407.6669-4.4856-.4721-.5056-2.0962.0644-3.1951.1441l-.1449.7969Z" style="fill:none" />
    <path d="M112.5447,101.5274c-14.3947,17.73-13.1113,46.6185,7.8319,63.0955,20.3974,16.0476,47.5723,10.5538,60.6158-4.154C147.2788,153.4374,124.1989,134.1507,112.5447,101.5274Z" style="fill:none" />
    <path d="M119.2589,103.4646c-2.6894.2209-3.11,1.393-1.37,4.6637.9793-1.1181,1.8282-1.9917,2.5446-2.9631a1.3615,1.3615,0,0,0,.0412-1.2682A1.546,1.546,0,0,0,119.2589,103.4646Z" style="fill:none" />
    <path d="M105.7461,155.2847a3.4746,3.4746,0,0,0,.2269-4.0849c-6.8877-13.7482-7.3777-27.772-1.2528-41.9.858-1.9789.9683-3.4126-.5512-4.9492-.7081-.7159-1.2726-1.5737-2.1882-2.7278A72.6457,72.6457,0,0,1,70.683,135.96C57.04,143.758,43.09,150.9194,26.1806,149.0247c.4656,1.043.7141,1.7374,1.0683,2.3728,8.5372,15.3174,21.533,23.9146,39.0711,24.4621C83.0736,176.3827,96.2456,169.1524,105.7461,155.2847Z" style="fill:none" />
    <path d="M121.2175,109.71a14.9173,14.9173,0,0,0-2.3407.8121c.6626,1.4158,1.2453,2.6609,2.0234,4.3237a33.0039,33.0039,0,0,0,2.0064-3.2325,1.8665,1.8665,0,0,0-.0525-1.6536C122.57,109.635,121.7583,109.6207,121.2175,109.71Z" style="fill:none" />
    <path d="M121.9492,116.6714l2.8546,4.6375c.7422-2.0711,2.8744-3.405,1.1792-5.1716C125.4876,115.6208,123.6307,116.4108,121.9492,116.6714Z" style="fill:none" />
    <path d="M47.7579,143.5682l3.2384-1.1673.2624-.5483-2.8662-1.5986C48.2158,141.1766,48.0391,142.0993,47.7579,143.5682Z" style="fill:none" />
    <path d="M41.8776,145.2759l3.53-.9323q.1392-.3272.2782-.6543l-3.135-1.8609Z" style="fill:none" />
    <path d="M29.6624,146.2964h3.7365c-.1641-.4863-.1875-.9621-.4367-1.2179-.7662-.7865-1.6189-1.489-2.4379-2.2241Z" style="fill:none" />
    <path d="M27.5181,145.9667l-1.7159-2.6994-.8049.1674c-.0446.7526-.4038,1.7609-.0531,2.1924.427.5255,1.4513.5656,2.2172.8157Z" style="fill:none" />
    <path d="M36.5277,143.0679c-.4364.07-.5929,1.8916-1.0021,3.35l4.1615-.6951C38.9968,144.2342,38.264,142.79,36.5277,143.0679Z" style="fill:none" />
    <path d="M171.2621,154.7059c-.4558-.8525-.7235-2.095-1.4268-2.4341-.5648-.2723-1.6574.55-2.5158.887l.1758.801,3.22,1.1215Z" style="fill:none" />
    <path d="M162.3682,64.66a47.0093,47.0093,0,0,1-3.6361-3.3786c-2.219-2.5848-4.9161-2.5179-7.4691-1.1035a13.2988,13.2988,0,0,1-9.1052,1.6263,5.7422,5.7422,0,0,0-3.8849,1.35,11.67,11.67,0,0,1-7.5712,2.83,4.886,4.886,0,0,0-4.1533,2.3367,10.1375,10.1375,0,0,1-6.888,4.1638,4.6462,4.6462,0,0,0-3.7393,2.8786,8.31,8.31,0,0,1-5.8478,5.071c-2.2937.5642-2.8723,1.8715-2.0173,4.02,1.55,3.8961,3.2236,7.7434,4.8651,11.6579,2.571-2.1622,4.8348-4.2867,7.3173-6.1139a46.3574,46.3574,0,0,1,29.2337-9.1841c1.1145.024,2.1888.0781,2.1212,1.56-.0638,1.4012-1.1528,1.29-2.1409,1.278A45.2659,45.2659,0,0,0,119.476,94.2065c-.5221.4253-.9978.9074-1.0783.9812.6611,1.7027,1.1774,3.0926,1.7465,4.46a3.7953,3.7953,0,0,0,.7378,1.0733c.2271.2454.7234.3386.8134.5988.6483,1.8719.7343,4.2115,1.9434,5.5484,1.5725,1.7388,2.34,3.2875,1.795,5.4976,3.4469,2.4175,3.6077,2.6991,3.6857,6.442,2.71,1.1131,3.9328,2.9655,3.5686,6.9936,3.0667-.012,5.3266,1.1259,5.7155,4.4918,3.7088.6477,4.23,1.1707,5.1353,5.2111,2.3752.27,4.3792,1.14,4.7245,4.0589a4.681,4.681,0,0,1,5.3481,3.7829c1.5736.1149,3.2522-.1843,4.4353.4463,1.1115.5923,1.7,2.1667,2.6908,3.55,2.3071-.7416,4.6389-.4422,5.78,2.8261,2.7567-1.7525,4.93-1.1933,6.3854,1.5182,3.1829-1.4109,4.6367-1.07,6.8265,1.4742,3.1724-.7958,3.61-.6277,5.7184,2.3087a40.8663,40.8663,0,0,0,7.0673-14.6127c3.3547-13.1755,1.8229-26.0029-3.1414-38.4938C183.4965,87.5756,173.8446,75.4552,162.3682,64.66Z" style="fill:none" />
    <path d="M53.1874,138.1415c.1578,1.0059.3155,2.0119.51,3.2545l3.6456-1.7172-3.5506-2.0174Z" style="fill:none" />
    <path d="M177.9354,156.1874c-.4976-.7931-.9112-2.153-1.5131-2.2421-.83-.123-1.8022.7131-2.7135,1.1385q.1039.3684.2082.7368l3.471.8132Z" style="fill:none" />
    <path d="M92.6262,71.8473a22.7146,22.7146,0,0,0,.0657-3.65l-5.9481,2.0759c1.83.9989,3.1413,1.8085,4.5433,2.4041C91.5856,72.8042,92.5614,72.2135,92.6262,71.8473Z" style="fill:none" />
    <path d="M145.7483,141.9745l-.4468-3.0813-2.966.451.03.664,2.6036,2.1685Z" style="fill:none" />
    <path d="M135.3576,132.9737c0-1.2262.4834-2.83-.1115-3.5915-.93-1.19-2.44-.7365-3.7372.58l3.0935,3.1593Z" style="fill:none" />
    <path d="M140.2491,133.8416c-.5362-.4411-2.2365.5328-3.9267,1.01l3.705,3.2414C140.7245,136.4907,141.57,134.9282,140.2491,133.8416Z" style="fill:none" />
    <path d="M151.4482,145.6447a9.205,9.205,0,0,0-1.3968-2.9208c-.2927-.2914-1.6271.4634-2.4875.7422l.1776.8089,3.0565,1.8Z" style="fill:none" />
    <path d="M164.5505,152.214c-.3621-.7161-.5972-1.8994-1.1156-2.04-.81-.22-1.8125.2651-2.7334.4516q.055.3919.11.784l3.3165,1.171Z" style="fill:none" />
    <path d="M158.0689,149.4722c-.3627-1.0649-.4681-2.7571-1.1524-3.0378-.8808-.3614-2.2258.4091-3.3708.692l.0722.6916,3.88,2.0135Z" style="fill:none" />
    <path d="M70.54,55.283c-4.33,1.0992-4.789,1.7654-4.3521,6.3176C70.5946,61.1669,71.4144,59.9767,70.54,55.283Z" style="fill:none" />
    <path d="M78.7241,49.4327c1.3316-.514,2.5094-1.07,3.7453-1.4216,1.7778-.5058,1.8169-1.524.9942-3.0856-1.13.37-2.2465.8344-3.4091,1.0933C78.0453,46.4662,77.7283,47.5466,78.7241,49.4327Z" style="fill:none" />
    <path d="M82.8707,42.7009c.2311-.1044.032-1.1612.032-2.2212l-5.4573,3.2855.3572.8309C79.5026,43.988,81.2307,43.4419,82.8707,42.7009Z" style="fill:none" />
    <path d="M74.5822,60.5079c-1.553.4336-1.9372,1.3941-1.8543,2.9.1146,2.0819.7392,2.5554,2.64,1.7111,3.2726-1.4536,3.46-1.8823,2.4029-5.902A30.1961,30.1961,0,0,1,74.5822,60.5079Z" style="fill:none" />
    <path d="M70.1015,50.2822c-1.6064,1.3478-4.4348,1.0957-3.9772,4.1682C69.7292,53.7655,70.6239,52.9134,70.1015,50.2822Z" style="fill:none" />
    <path d="M76.277,47.76c-3.7435.823-4.5214,1.6128-3.87,3.9287C76.6842,50.8066,77.0079,50.4778,76.277,47.76Z" style="fill:none" />
    <path d="M89.1343,40.9225c-.2435-.8531-.4423-1.55-.6372-2.232-3.8131.556-4.1522.8777-3.4829,3.4764Z" style="fill:none" />
    <path d="M92.0186,44.5989l3.5746-.6869c-.1482-.7429-.2735-1.3714-.4405-2.2089l-3.5379.7813C91.7556,43.2218,91.8661,43.8006,92.0186,44.5989Z" style="fill:none" />
    <path d="M90.84,40.4485c.7846-.1292,1.1953-.1715,1.5929-.2678.7262-.1761,1.4447-.3841,2.3784-.6359-.1321-.88-.2564-1.7092-.4177-2.7841l-4.26,1.1432C90.3908,38.8291,90.6022,39.59,90.84,40.4485Z" style="fill:none" />
    <path d="M58.4153,136.1755l.9269,2.47,2.92-1.344L58.87,135.646Z" style="fill:none" />
    <path d="M90.53,35.68c1.1-.2993,2.1925-.626,3.3717-.9672-.1572-.602-.29-1.11-.484-1.8541l-3.7558,2.455.1047.413A3.6623,3.6623,0,0,0,90.53,35.68Z" style="fill:none" />
    <path d="M79.6188,56.315c.6426-.2239,1.284-.4413,1.9212-.67,3.8929-1.4007,4.017-1.6777,2.62-5.9883-.5756.194-1.1584.3664-1.7235.5846C78.2779,51.8462,78.279,51.849,79.6188,56.315Z" style="fill:none" />
    <path d="M91.0312,114.8909l-4.2514-.7142c.712,1.505,1.1539,2.4392,1.7309,3.659Z" style="fill:none" />
    <path d="M73.6109,127.132c.2633.8874.5267,1.7748.8667,2.9206l3.0635-2.012-3.5233-1.4794Z" style="fill:none" />
    <path d="M79.7357,126.2046l2.1408-1.7766-.1428-.9013H78.8246C79.1,124.3369,79.3759,125.147,79.7357,126.2046Z" style="fill:none" />
    <path d="M68.046,130.3216c.4685,1.0792.865,1.9922,1.3434,3.094l2.8049-1.6305C70.986,130.6285,70.1975,129.22,68.046,130.3216Z" style="fill:none" />
    <path d="M71.0781,64.75V62.1146l-4.0623,1.6145Z" style="fill:none" />
    <path d="M83.9319,122.8028l3.0359-3.253-3.8465-.254Z" style="fill:none" />
    <path d="M64.0136,133.3324c-.4143.2754-.0643,1.7012-.0643,3.0448l3.0973-1.6674C66.09,133.6752,65.364,132.4351,64.0136,133.3324Z" style="fill:none" />
    <path d="M64.2306,58.4347c-3.0748.6867-3.3975,1.1012-3.3107,4.3881C64.7043,63.5017,64.9865,63.11,64.2306,58.4347Z" style="fill:none" />
    <path d="M92.6171,60.171c-4.845.2762-5.6448,1.4592-5.1662,7.6451,1.6023-.5324,3.0491-.936,4.4223-1.5143a1.7955,1.7955,0,0,0,.9658-1.2692C92.8728,63.4133,92.7073,61.79,92.6171,60.171Z" style="fill:none" />
    <path d="M33.6771,141.343c2.5142-1.7486,3.1922-1.7935,5.7784-.3826,2.2464-2.4585,2.8507-2.6024,5.7692-1.2893,1.11-2.2646,2.9021-2.9243,5.3628-1.88.8094-2.648,2.7105-3.0842,5.1734-2.4742a3.6715,3.6715,0,0,1,4.3077-2.3106A1.3009,1.3009,0,0,0,61.17,132.45c.86-1.9519,2.4582-2.4675,4.3447-2.34,1.0364-2.8869,2.2846-3.5454,5.44-2.9584.87-3.1574,1.28-3.436,4.8291-3.2821,1.2288-2.9971,1.6185-3.3376,4.36-3.73.3773-2.5476,1.4749-4.446,4.5186-4.0789-.1385-3.6009.3459-4.1509,4.2378-4.87-.2063-2.8226,1.2784-4.3129,4.0962-4.6819-.3591-2.3761.0949-4.3309,1.9715-5.0605.4585-1.8723.8223-3.3577,1.316-5.3734-1.171-.84-2.83-2.1624-4.6132-3.286a45.45,45.45,0,0,0-27.6281-6.9232c-1.0207.0614-2.2441.43-2.3515-1.1578-.1015-1.5027,1.1386-1.5252,2.1569-1.6048a46.495,46.495,0,0,1,29.7237,7.4931c2.1822,1.4178,4.24,3.0275,6.5281,4.6738,1.0241-2.211,1.9707-4.3481,3.0008-6.4442.624-1.27.2132-1.9542-1.0537-2.2822a8.2691,8.2691,0,0,0-1.6152-.322,6.246,6.246,0,0,1-4.8946-2.7046,9.5005,9.5005,0,0,0-7.7834-4.0153,7.458,7.458,0,0,1-5.951-2.877,8.0608,8.0608,0,0,0-8.5848-3.1631,6.941,6.941,0,0,1-6.2359-1.9607,6.333,6.333,0,0,0-3.7331-1.1356,19.4121,19.4121,0,0,0-3.8332.77,7.3892,7.3892,0,0,1-5.906-1.1228c-2.4962-1.7857-4.1477-1.516-6.2236.8111C36.6856,82.7081,28.2789,95.85,24.1539,111.4208a63.1777,63.1777,0,0,0-1.0166,28.2976,5.5206,5.5206,0,0,0,.2337.7688l4.686.5342C30.1536,139.3672,30.8988,139.3718,33.6771,141.343Z" style="fill:none" />
    <path d="M92.6888,112.7094l1.8262-2.82H91.0968Z" style="fill:none" />
    <path d="M95.6613,104.5951c-.2645.5906.026,1.43.0826,2.1639l.6288.052,1.5845-2.7991C96.8417,104.2666,95.8211,104.2381,95.6613,104.5951Z" style="fill:none" />
    <path d="M108.0086,186.5132a72.2922,72.2922,0,0,1-9.4928,5.9516l-4.4064,7.4491L78.5922,226.146c20.2928-14.2815,37.6886-18.0092,68.7547,0L128.47,199.9139l-5.77-8.0188A86.7424,86.7424,0,0,1,111.8978,186.3C110.2967,185.327,109.4261,185.4643,108.0086,186.5132Z" />
    <path d="M201.5906,77.9121c-11.4612-17.9471-26.4873-32.5546-43.1441-45.5909-14.868-11.6363-30.951-21.39-47.4443-30.5126-4.8956-2.7077-9.4625-2.3032-13.967.7323-15.9615,10.7562-31.63,21.91-45.812,34.9819C37.53,50.1444,25.1861,63.9385,15.5507,79.9778,7.6093,93.1972,2.1612,107.327.503,122.75c-2.2545,20.9686,2.9844,39.6387,17.4421,55.3374A65.4053,65.4053,0,0,0,62.3907,199.69a65.433,65.433,0,0,0,36.1251-7.2247,72.2922,72.2922,0,0,0,9.4928-5.9516c1.4175-1.0489,2.2881-1.1862,3.8892-.2137a86.7424,86.7424,0,0,0,10.8014,5.5956c19.3528,8.3093,39.1552,7.6159,58.9989-2.9533,20.6917-11.0211,32.2273-28.873,35.5514-52.0265.38-2.6464.3635-5.35.4962-7.4713C217.4121,110.2778,211.5108,93.4463,201.5906,77.9121ZM142.6557,50.6064c.149-.4832.2478-.9819.4411-1.76l6.425,4.7935c-1.5046.2281-2.4288.3822-3.3569.5064C142.3334,54.6593,141.1324,55.5453,142.6557,50.6064Zm-4.8622-5.2015c4.369,2.5318,4.0353,1.6047,2.4068,7.2914C135.7074,50.37,135.4351,49.5067,137.7935,45.4049Zm2.4571,9.6984-5.2379,1.4514c.3117-1.5844.5538-2.8155.85-4.3214Zm-7.7279-13.2821,3.5123,2.1837c-.444,1.5974-.8428,3.0429-1.2525,4.4854a8.1082,8.1082,0,0,1-.63.975c-1.0481-1.0354-2.5909-1.8544-2.7328-2.8692C131.22,45.1681,132.0593,43.5947,132.5227,41.8212Zm.5858,14.3912c-3.6674-1.9445-4.1054-3.2866-2.1142-6.478C134.6344,51.1587,134.9434,52.1055,133.1085,56.2124Zm-5.8228-16.5971,3.5587,1.5212c-.4866,1.8573-.9259,3.5337-1.3951,5.3247l-3.5716-1.8626C126.35,42.928,126.7873,41.3794,127.2857,39.6153Zm-1.7022,7.2862c3.7707,1.4818,3.9656.9219,2.3845,5.9471C124.1039,51.5171,123.9035,51.0173,125.5835,46.9015Zm1.4978,11.428c-.1282.6367-.8226,1.1594-1.2555,1.7348-.8652-.7247-2.3066-1.3432-2.4639-2.198-.2531-1.3764.3411-2.9087.608-4.5659C127.7392,54.8161,127.7867,54.8257,127.0813,58.33Zm-3.9772-20.2672,2.5348.862c-.5444,1.7974-1.0069,3.3245-1.4726,4.8625C121.2324,42.72,121.0724,41.7187,123.1041,38.0623Zm-.4079,12.0255c-3.17-.9211-3.3476-1.6273-1.28-5.0915C124.0776,45.89,124.0776,45.89,122.6962,50.0878Zm-16.143-4.01c-.3844,1.7937-.7225,3.3712-1.1345,5.2938-1.2833-.5464-3.1668-.8737-3.2633-1.4838-.2319-1.4658.3745-3.0641.66-4.7117Zm-3.3082-2.9919c.27-1.1318.4842-2.028.7365-3.0847l3.7125.7505-.8242,3.23Zm2.1229,10.2327c-.1159,1.1008-.2144,2.0361-.3283,3.1174-3.9228-.8373-4.1441-1.1192-3.0681-3.941Zm-3.848,4.3488c3.591.8329,3.6567.9313,2.8807,4.525C100.8588,60.571,100.6262,60.1918,101.52,57.6677Zm2.81,12.8585-.5385.1361c-.57-2.3206-1.14-4.6412-1.8139-7.3864C105.9632,65.1749,103.4356,68.2882,104.3294,70.5262Zm-2.7892,1.4c.2445.964.4739,1.8685.7392,2.9143l-2.7122.7822C100.0947,74.109,98.5871,72.04,101.54,71.9259Zm-1.4108-22.2247-.79.0493c-.22-1.708-.4405-3.416-.7-5.4281l2.3851.69C100.7091,46.6654,100.4193,48.1833,100.1294,49.7012Zm2.8585,27.192c.31,1.2705.5694,2.3327.8288,3.395l-.5793.2006-3.7058-2.7532Zm8.5517,21.105-4.22,5.8961-5.82-7.2135C105.2763,96.6148,108.5414,95.789,111.54,97.9982Zm-5.5762-23.6915V65.643a28.43,28.43,0,0,1,3.6844,2.9809,2.3143,2.3143,0,0,1,.0914,2.2038,41.2716,41.2716,0,0,1-3.3918,3.8565Zm4.0062-8.2091c-4.0332-2.286-4.2328-2.6851-3.1547-6.5731C111.0527,61.23,110.846,60.1926,109.97,66.0976ZM107.478,53.939l3.8507,1.4083c-.1867,1.2265-.3495,2.2958-.5343,3.51C106.3779,57.3525,106.2446,57.15,107.478,53.939Zm-.1836-2.2255c.3369-1.7166.6488-3.3066.986-5.0248,4.8627.7437,5.4352,2.0152,3.12,6.546Zm2.3818-10.7022L114.03,42.07c-.2875,1.3641-.5231,2.4818-.7563,3.5886C108.4431,45.0055,108.2822,44.8032,109.6762,41.0113Zm2.475,21.3579.53-.3465c1.0125.9813,2.943,2.0886,2.83,2.9155-.186,1.3557-1.7,2.5294-2.6535,3.78l-1.1037-.4891Zm1.0189-6.2905c3.8783,1.3944,4.0753,1.852,2.6169,5.7559C112.1409,60.2444,112.106,60.17,113.17,56.0787Zm1.71-7.2574,3.0559,1.4487-1.1113,4.8934C113.1513,54.3072,112.6728,52.71,114.8805,48.8213Zm1.2277-6.0786,3.3014,1.4038c-.3711,1.3348-.7123,2.5625-1.0967,3.9453C114.4858,46.66,114.3062,46.2009,116.1082,42.7427Zm2.1652,15.6521c3.6887,1.4286,2.8636,1.25,2.4913,3.9093-.09.64-1.4463,1.1021-2.22,1.6461a7.2372,7.2372,0,0,1-.7758-2.18A19.8629,19.8629,0,0,1,118.2734,58.3948Zm1.5342-7.2956,2.6077,1.3144c-.172,1.0224-.3,1.8324-.4462,2.6391-.1444.7969-.3072,1.5906-.4629,2.3911C118.1061,56.4805,117.8736,55.6265,119.8076,51.0992Zm-.199-9.11-3.3594-1.4142,1.1143-4.1863C121.41,37.2432,121.6391,36.4791,119.6086,41.9893Zm-7.1752-11.8975c4.2111,1.7871,4.3764,1.9627,3.4223,3.5294l-4.1512-1.0818C111.971,31.6448,112.1788,30.9466,112.4334,30.0918Zm-1.3268,4.4825,4.5494,1.0664L114.48,40.0488l-4.5723-1.2036C110.323,37.3644,110.6959,36.0367,111.1066,34.5743Zm-3.7811-7.3391,3.4844,1.8882-.94,3.0541-3.7475-1.0185C106.56,29.73,106.9229,28.5478,107.3255,27.2352Zm1.9174,6.9268c-.4015,1.5342-.76,2.9028-1.1416,4.3619l-3.5666-.6309c.4114-1.6407.772-3.0786,1.1748-4.6852Zm-3.6563-8.14c-.42,1.7044-.7784,3.16-1.19,4.8323l-2.9625-.6083C101.9868,28.09,102.7041,26.3832,105.5866,26.0215Zm-5.7793,9.2458c.2546-.9737.57-1.9313.91-3.0555l3.2321.6432c-.478,1.73-.8667,3.1356-1.2792,4.6277l-3.0459-.6589A11.8935,11.8935,0,0,1,99.8073,35.2673Zm-.6088,3.5733,3.0061.6908c-.2844,1.1743-.5311,2.1926-.8163,3.37l-2.998-.7767C98.6961,40.8824,98.9374,39.9017,99.1985,38.8406ZM94.4739,71.6778c-.3038-4.1189.11-4.6431,3.7964-4.929C98.874,70.2615,98.7331,70.4512,94.4739,71.6778Zm3.609,1.062c-.0837,1.35-.1489,2.4033-.2432,3.9249L93.95,74.1215Zm-3.527-7.6845c-.0928-1.8826-.186-3.7715-.2822-5.7232l3.3066-.758C99.3625,63.3873,98.6137,65.0185,94.5559,65.0553Zm2.9608-8.575-3.4973.7256c-.1116-1.1993-.2046-2.1991-.3071-3.3l3.1617-.9774C97.0919,54.1321,97.2879,55.2153,97.5167,56.48Zm-.9521-5.59-3.2355.9283c-.2709-1.8569-.5073-3.4768-.7547-5.1725l3.3692-.7052C96.1652,47.7071,96.3572,49.2374,96.5646,50.89ZM80.7854,64.6221A54.0862,54.0862,0,0,1,85.71,62.3485c0,1.0776.0049,1.7985-.0007,2.5192-.038,4.8474-.55,5.173-4.8281,2.9267a1.8292,1.8292,0,0,1-.8969-1.3338A2.4918,2.4918,0,0,1,80.7854,64.6221ZM85.57,56.73c-.2706,1.3807-.1037,3.04-.8348,3.6911-1.201,1.07-2.9843,1.486-4.7069,2.2608C79.5294,58.0847,79.8475,57.7391,85.57,56.73ZM89.738,43.0352c.2065.6885.4057,1.3527.657,2.19l-4.4294,1.3935C85.1689,44.0978,85.1689,44.0978,89.738,43.0352ZM90.9063,47.44c.2032,1.2741.4708,2.5461.5742,3.8313.0339.4209-.2592,1.1547-.5737,1.2671-1.3252.4735-2.7149.7661-4.0782,1.1242C85.6055,48.8265,85.9854,48.26,90.9063,47.44Zm.9343,7.0515c.6955,3.5345,1.6051,3.026-4.5761,4.78-.1445-1.0212-.2858-2.0207-.4746-3.3553Zm.8513,13.7063a22.7146,22.7146,0,0,1-.0657,3.65c-.0648.3662-1.0406.9569-1.3391.83-1.402-.5956-2.7129-1.4052-4.5433-2.4041Zm-.8187-1.8956c-1.3732.5783-2.82.9819-4.4223,1.5143-.4786-6.1859.3212-7.3689,5.1662-7.6451.09,1.6188.2557,3.2423.2219,4.8616A1.7955,1.7955,0,0,1,91.8732,66.3018Zm3.72-22.39-3.5746.6869c-.1525-.7983-.263-1.3771-.4038-2.1145l3.5379-.7813C95.32,42.5406,95.445,43.1691,95.5932,43.912Zm-.7816-4.3672c-.9337.2518-1.6522.46-2.3784.6359-.3976.0963-.8083.1386-1.5929.2678-.2381-.8581-.45-1.6194-.7063-2.5446l4.26-1.1432C94.5552,37.8356,94.68,38.6645,94.8116,39.5448Zm-1.3935-6.6861c.1943.744.3268,1.2521.484,1.8541-1.1792.3412-2.2718.6679-3.3717.9672a3.6623,3.6623,0,0,1-.7634.0467l-.1047-.413Zm-4.921,5.8318c.1949.6824.3937,1.3789.6372,2.232l-4.12,1.2444C84.3449,39.5682,84.684,39.2465,88.4971,38.6905ZM81.54,55.6445c-.6372.2292-1.2786.4466-1.9212.67-1.34-4.466-1.3409-4.4688,2.8177-6.0742.5651-.2182,1.1479-.3906,1.7235-.5846C85.557,53.9668,85.4329,54.2438,81.54,55.6445Zm.9294-7.6334c-1.2359.3516-2.4137.9076-3.7453,1.4216-.9958-1.8861-.6788-2.9665,1.33-3.4139,1.1626-.2589,2.2793-.7236,3.4091-1.0933C84.2863,46.4871,84.2472,47.5053,82.4694,48.0111ZM75.3681,65.1192c-1.901.8443-2.5256.3708-2.64-1.7111-.0829-1.5061.3013-2.4666,1.8543-2.9a30.1961,30.1961,0,0,0,3.1888-1.2907C78.8284,63.2369,78.6407,63.6656,75.3681,65.1192Zm7.5346-24.64c0,1.06.1991,2.1168-.032,2.2212-1.64.741-3.3681,1.2871-5.0681,1.8952l-.3572-.8309ZM77.7689,56.99l-4.8844,1.9957c-.8848-5.3187-1.2592-4.79,4.1405-6.3345C77.2755,54.112,77.5218,55.549,77.7689,56.99ZM76.277,47.76c.7309,2.7179.4072,3.0467-3.87,3.9287C71.7556,49.3727,72.5335,48.5829,76.277,47.76Zm-6.1755,2.5223c.5224,2.6312-.3723,3.4833-3.9772,4.1682C65.6667,51.3779,68.4951,51.63,70.1015,50.2822ZM70.54,55.283c.8742,4.6937.0544,5.8839-4.3521,6.3176C65.7512,57.0484,66.21,56.3822,70.54,55.283Zm.5379,6.8316V64.75l-4.0623-1.0207Zm-6.8475-3.68c.7559,4.6753.4737,5.067-3.3107,4.3881C60.8331,59.5359,61.1558,59.1214,64.2306,58.4347ZM23.1373,139.7184a63.1777,63.1777,0,0,1,1.0166-28.2976C28.2789,95.85,36.6856,82.7081,47.2862,70.824c2.0759-2.3271,3.7274-2.5968,6.2236-.8111a7.3892,7.3892,0,0,0,5.906,1.1228,19.4121,19.4121,0,0,1,3.8332-.77,6.333,6.333,0,0,1,3.7331,1.1356,6.941,6.941,0,0,0,6.2359,1.9607,8.0608,8.0608,0,0,1,8.5848,3.1631,7.458,7.458,0,0,0,5.951,2.877,9.5005,9.5005,0,0,1,7.7834,4.0153,6.246,6.246,0,0,0,4.8946,2.7046,8.2691,8.2691,0,0,1,1.6152.322c1.2669.328,1.6777,1.0123,1.0537,2.2822-1.03,2.0961-1.9767,4.2332-3.0008,6.4442-2.2884-1.6463-4.3459-3.256-6.5281-4.6738A46.495,46.495,0,0,0,63.8481,83.103c-1.0183.08-2.2584.1021-2.1569,1.6048.1074,1.5878,1.3308,1.2192,2.3515,1.1578a45.45,45.45,0,0,1,27.6281,6.9232c1.7837,1.1236,3.4422,2.4461,4.6132,3.286-.4937,2.0157-.8575,3.5011-1.316,5.3734-1.8766.73-2.3306,2.6844-1.9715,5.0605-2.8178.369-4.3025,1.8593-4.0962,4.6819-3.8919.7192-4.3763,1.2692-4.2378,4.87-3.0437-.3671-4.1413,1.5313-4.5186,4.0789-2.7419.3928-3.1316.7333-4.36,3.73-3.549-.1539-3.9591.1247-4.8291,3.2821-3.155-.587-4.4032.0715-5.44,2.9584-1.8865-.1278-3.4848.3878-4.3447,2.34a1.3009,1.3009,0,0,1-1.1015.5564,3.6715,3.6715,0,0,0-4.3077,2.3106c-2.4629-.61-4.364-.1738-5.1734,2.4742-2.4607-1.0446-4.2525-.3849-5.3628,1.88-2.9185-1.3131-3.5228-1.1692-5.7692,1.2893-2.5862-1.4109-3.2642-1.366-5.7784.3826-2.7783-1.9712-3.5235-1.9758-5.62-.3216l-4.686-.5342A5.5206,5.5206,0,0,1,23.1373,139.7184Zm74.82-35.7065-1.5845,2.7991-.6288-.052c-.0566-.7344-.3471-1.5733-.0826-2.1639C95.8211,104.2381,96.8417,104.2666,97.9572,104.0119Zm-3.4422,5.8775-1.8262,2.82-1.592-2.82ZM86.78,114.1767l4.2514.7142-2.52,2.9448C87.9337,116.6159,87.4918,115.6817,86.78,114.1767Zm.188,5.3731-3.0359,3.253-.8106-3.507Zm-5.0913,4.8782-2.1408,1.7766c-.36-1.0576-.6354-1.8677-.9111-2.6779h2.9091Zm-4.3354,3.6126-3.0635,2.012c-.34-1.1458-.6034-2.0332-.8667-2.9206l.4069-.5708Zm-5.3468,3.7445-2.8049,1.6305c-.4784-1.1018-.8749-2.0148-1.3434-3.094C70.1975,129.22,70.986,130.6285,72.1943,131.7851ZM67.0466,134.71l-3.0973,1.6674c0-1.3436-.35-2.7694.0643-3.0448C65.364,132.4351,66.09,133.6752,67.0466,134.71Zm-4.784,2.5916-2.92,1.344-.9269-2.47.4542-.53Zm-4.9194,2.3774-3.6456,1.7172c-.1947-1.2426-.3524-2.2486-.51-3.2545l.6052-.48Zm-6.0845,2.1738-.2624.5483-3.2384,1.1673c.2812-1.4689.4579-2.3916.6346-3.3142Zm-5.573,1.8367q-.139.3271-.2782.6543l-3.53.9323.6731-3.4475Zm-5.9986,2.034-4.1615.6951c.4092-1.4589.5657-3.2808,1.0021-3.35C38.264,142.79,38.9968,144.2342,39.6871,145.7233Zm-6.2882.5731H29.6624l.8619-3.442c.819.7351,1.6717,1.4376,2.4379,2.2241C33.2114,145.3343,33.2348,145.81,33.3989,146.2964Zm-8.4016-2.8617.8049-.1674,1.7159,2.6994-.3567.4761c-.7659-.25-1.79-.29-2.2172-.8157C24.5935,145.1956,24.9527,144.1873,24.9973,143.4347ZM66.32,175.86c-17.5381-.5475-30.5339-9.1447-39.0711-24.4621-.3542-.6354-.6027-1.33-1.0683-2.3728,16.91,1.8947,30.86-5.2667,44.5024-13.0652a72.6457,72.6457,0,0,0,31.2978-34.3366c.9156,1.1541,1.48,2.0119,2.1882,2.7278,1.52,1.5366,1.4092,2.97.5512,4.9492-6.1249,14.1279-5.6349,28.1517,1.2528,41.9a3.4746,3.4746,0,0,1-.2269,4.0849C96.2456,169.1524,83.0736,176.3827,66.32,175.86Zm54.0566-11.2367c-20.9432-16.477-22.2266-45.3655-7.8319-63.0955,11.6542,32.6233,34.7341,51.91,68.4477,58.9415C167.9489,175.1767,140.774,180.6705,120.3766,164.6229Zm4.4272-43.314-2.8546-4.6375c1.6815-.2606,3.5384-1.0506,4.0338-.5341C127.6782,117.9039,125.546,119.2378,124.8038,121.3089Zm4.974,1.2784c1.2558,1.3449.2773,2.845-.6669,4.4856l-2.6731-3.5446.1449-.7969C127.6816,122.6517,129.3057,122.0817,129.7778,122.5873Zm-6.8712-10.9742a33.0039,33.0039,0,0,1-2.0064,3.2325c-.7781-1.6628-1.3608-2.9079-2.0234-4.3237a14.9173,14.9173,0,0,1,2.3407-.8121c.5408-.0891,1.3522-.0748,1.6366.25A1.8665,1.8665,0,0,1,122.9066,111.6131Zm-2.4729-6.4479c-.7164.9714-1.5653,1.845-2.5446,2.9631-1.74-3.2707-1.32-4.4428,1.37-4.6637a1.546,1.546,0,0,1,1.216.4324A1.3615,1.3615,0,0,1,120.4337,105.1652Zm-4.6017-3.3545c-1.0075-2.5585-.6795-3.0492,2.4048-3.036Zm15.6769,28.1515c1.2974-1.3165,2.8074-1.77,3.7372-.58.5949.7615.1115,2.3653.1115,3.5915l-.7552.1478Zm4.8135,4.8889c1.69-.4767,3.3905-1.4506,3.9267-1.01,1.321,1.0866.4754,2.6491-.2217,4.2509Zm6.0131,4.4931,2.966-.451.4468,3.0813-.78.2022-2.6036-2.1685Zm5.2284,4.1219c.86-.2788,2.1948-1.0336,2.4875-.7422a9.205,9.205,0,0,1,1.3968,2.9208l-.65.43-3.0565-1.8Zm5.9818,3.66c1.145-.2829,2.49-1.0534,3.3708-.692.6843.2807.79,1.9729,1.1524,3.0378l-.5708.3593-3.88-2.0135Zm7.1558,3.4989c.9209-.1865,1.9231-.6719,2.7334-.4516.5184.1409.7535,1.3242,1.1156,2.04l-.4222.3663-3.3165-1.171Q160.7566,151.0172,160.7015,150.6253Zm6.618,2.5335c.8584-.3367,1.951-1.1593,2.5158-.887.7033.3391.971,1.5816,1.4268,2.4341l-.5472.3754-3.22-1.1215Zm6.3893,1.925c.9113-.4254,1.8834-1.2615,2.7135-1.1385.6019.0891,1.0155,1.449,1.5131,2.2421l-.5474.4464-3.471-.8132Q173.8129,155.4522,173.7088,155.0838Zm18.8063-14.2267a40.8663,40.8663,0,0,1-7.0673,14.6127c-2.1087-2.9364-2.546-3.1045-5.7184-2.3087-2.19-2.5445-3.6436-2.8851-6.8265-1.4742-1.4549-2.7115-3.6287-3.2707-6.3854-1.5182-1.141-3.2683-3.4728-3.5677-5.78-2.8261-.9911-1.3831-1.5793-2.9575-2.6908-3.55-1.1831-.6306-2.8617-.3314-4.4353-.4463a4.681,4.681,0,0,0-5.3481-3.7829c-.3453-2.919-2.3493-3.7888-4.7245-4.0589-.9056-4.04-1.4265-4.5634-5.1353-5.2111-.3889-3.3659-2.6488-4.5038-5.7155-4.4918.3642-4.0281-.859-5.88-3.5686-6.9936-.078-3.7429-.2388-4.0245-3.6857-6.442.5451-2.21-.2225-3.7588-1.795-5.4976-1.2091-1.3369-1.2951-3.6765-1.9434-5.5484-.09-.26-.5863-.3534-.8134-.5988a3.7953,3.7953,0,0,1-.7378-1.0733c-.5691-1.3678-1.0854-2.7577-1.7465-4.46.0805-.0738.5562-.5559,1.0783-.9812a45.2659,45.2659,0,0,1,29.9764-10.5536c.9881.0119,2.0771.1232,2.1409-1.278.0676-1.4821-1.0067-1.5362-2.1212-1.56a46.3574,46.3574,0,0,0-29.2337,9.1841c-2.4825,1.8272-4.7463,3.9517-7.3173,6.1139-1.6415-3.9145-3.3146-7.7618-4.8651-11.6579-.855-2.1487-.2764-3.456,2.0173-4.02a8.31,8.31,0,0,0,5.8478-5.071A4.6462,4.6462,0,0,1,119.66,72.485a10.1375,10.1375,0,0,0,6.888-4.1638,4.886,4.886,0,0,1,4.1533-2.3367,11.67,11.67,0,0,0,7.5712-2.83,5.7422,5.7422,0,0,1,3.8849-1.35,13.2988,13.2988,0,0,0,9.1052-1.6263c2.553-1.4144,5.25-1.4813,7.4691,1.1035a47.0093,47.0093,0,0,0,3.6361,3.3786c11.4764,10.7948,21.1283,22.9152,27.0055,37.7029C194.338,114.8542,195.87,127.6816,192.5151,140.8571Z" />
    <path d="M101.9808,101.6229A72.645,72.645,0,0,1,70.683,135.9594c-13.643,7.7987-27.5926,14.96-44.5024,13.0653.4656,1.043.714,1.7374,1.0682,2.3728C35.7861,166.7149,48.782,175.312,66.32,175.86c16.7536.5231,29.9256-6.7072,39.4261-20.5749a3.4744,3.4744,0,0,0,.2269-4.0848c-6.8877-13.7483-7.3777-27.772-1.2528-41.9.858-1.9789.9683-3.4126-.5512-4.9492C103.461,103.6348,102.8964,102.777,101.9808,101.6229Z" style="fill:#fff" />
    <path d="M112.5447,101.5274c-14.3947,17.73-13.1112,46.6185,7.8319,63.0955,20.3974,16.0476,47.5723,10.5539,60.6158-4.154C147.2788,153.4375,124.1989,134.1507,112.5447,101.5274Z" style="fill:#fff" />
    <path d="M107.3194,103.8943c1.3967-1.9515,2.74-3.8281,4.22-5.8961-2.9981-2.2092-6.2632-1.3834-10.04-1.3174Z" style="fill:#fff" />
    <path d="M124.8038,121.3089c.7421-2.0711,2.8744-3.405,1.1792-5.1717-.4954-.5163-2.3523.2736-4.0338.5343Z" style="fill:#fff" />
    <path d="M120.9,114.8456a33.0039,33.0039,0,0,0,2.0064-3.2325,1.8663,1.8663,0,0,0-.0525-1.6535c-.2844-.3246-1.0958-.3389-1.6365-.25a14.9214,14.9214,0,0,0-2.3408.8121Z" style="fill:#fff" />
    <path d="M117.8891,108.1283c.9792-1.1181,1.8282-1.9917,2.5445-2.9631a1.3612,1.3612,0,0,0,.0413-1.2682,1.5459,1.5459,0,0,0-1.216-.4324C116.57,103.6856,116.1487,104.8576,117.8891,108.1283Z" style="fill:#fff" />
    <path d="M126.4378,123.5283l2.6731,3.5446c.9442-1.6406,1.9227-3.1407.6669-4.4855-.4721-.5057-2.0962.0643-3.1951.144Z" style="fill:#fff" />
    <path d="M136.3224,134.8511l3.705,3.2414c.6971-1.6018,1.5427-3.1643.2217-4.2509C139.7129,133.4005,138.0127,134.3745,136.3224,134.8511Z" style="fill:#fff" />
    <path d="M131.5089,129.9622l3.0935,3.1593.7552-.1478c0-1.2262.4834-2.83-.1115-3.5915C134.3163,128.192,132.8064,128.6457,131.5089,129.9622Z" style="fill:#fff" />
    <path d="M153.6178,147.8181l3.88,2.0134.5708-.3593c-.3627-1.0649-.4681-2.757-1.1525-3.0378-.8807-.3613-2.2257.4091-3.3707.692Z" style="fill:#fff" />
    <path d="M29.6623,146.2964h3.7366c-.1642-.4863-.1875-.962-.4367-1.2178-.7662-.7866-1.6189-1.489-2.4379-2.2242Z" style="fill:#fff" />
    <path d="M35.5256,146.4184l4.1615-.6951c-.69-1.4891-1.423-2.9329-3.1594-2.6554C36.0913,143.1377,35.9348,144.96,35.5256,146.4184Z" style="fill:#fff" />
    <path d="M68.046,130.3217l1.3434,3.094,2.8049-1.63C70.986,130.6285,70.1974,129.22,68.046,130.3217Z" style="fill:#fff" />
    <path d="M41.8776,145.2759l3.53-.9323.2783-.6543-3.1351-1.8609Z" style="fill:#fff" />
    <path d="M53.6977,141.396l3.6455-1.7171-3.5506-2.0175-.6052.48Z" style="fill:#fff" />
    <path d="M145.7483,141.9745l-.4467-3.0812-2.9661.4509.03.664,2.6036,2.1685Z" style="fill:#fff" />
    <path d="M147.7416,144.275l3.0564,1.8.65-.43a9.205,9.205,0,0,0-1.3968-2.9208c-.2927-.2914-1.6271.4634-2.4875.7422Z" style="fill:#fff" />
    <path d="M83.9319,122.8029l3.0359-3.2531-3.8464-.254Z" style="fill:#fff" />
    <path d="M173.917,155.8206l3.471.8133.5474-.4464c-.4976-.7932-.9112-2.153-1.5131-2.2422-.83-.123-1.8022.7132-2.7135,1.1385Z" style="fill:#fff" />
    <path d="M167.4953,153.96l3.22,1.1215.5472-.3755c-.4558-.8523-.7235-2.0949-1.4268-2.434-.5648-.2723-1.6574.55-2.5158.887Z" style="fill:#fff" />
    <path d="M47.7579,143.5682l3.2384-1.1673.2624-.5482-2.8662-1.5988C48.2158,141.1766,48.0391,142.0993,47.7579,143.5682Z" style="fill:#fff" />
    <path d="M88.5107,117.8357l2.52-2.9448-4.2514-.7142Z" style="fill:#fff" />
    <path d="M73.6109,127.132l.8667,2.9206,3.0635-2.012-3.5233-1.4794Z" style="fill:#fff" />
    <path d="M63.9493,136.3772l3.0973-1.6674c-.9566-1.0346-1.6826-2.2747-3.033-1.3774C63.5992,133.6078,63.9493,135.0336,63.9493,136.3772Z" style="fill:#fff" />
    <path d="M160.8118,151.4093l3.3165,1.171.4222-.3663c-.3621-.7161-.5972-1.8994-1.1156-2.04-.81-.22-1.8125.2651-2.7334.4516Z" style="fill:#fff" />
    <path d="M24.9973,143.4347c-.0446.7526-.4038,1.7609-.0531,2.1924.427.5255,1.4513.5656,2.2172.8157l.3567-.476-1.7159-2.7Z" style="fill:#fff" />
    <path d="M58.4153,136.1755l.9269,2.47,2.92-1.3441L58.87,135.646Z" style="fill:#fff" />
    <path d="M81.7336,123.5268h-2.909l.9112,2.6778,2.1407-1.7766Z" style="fill:#fff" />
    <path d="M92.6888,112.7094l1.8262-2.82H91.0968Z" style="fill:#fff" />
    <path d="M118.2368,98.7747c-3.0843-.0132-3.4123.4775-2.4048,3.036Z" style="fill:#fff" />
    <path d="M96.3727,106.8111l1.5845-2.7991c-1.1154.2546-2.1361.2261-2.296.5831-.2644.5906.0261,1.43.0827,2.1639Z" style="fill:#fff" />
</svg>